<?xml version="1.0" standalone="no"?>
<!DOCTYPE svg PUBLIC "-//W3C//DTD SVG 20010904//EN"
 "http://www.w3.org/TR/2001/REC-SVG-20010904/DTD/svg10.dtd">
<svg version="1.0" xmlns="http://www.w3.org/2000/svg"
 width="302.000000pt" height="289.000000pt" viewBox="0 0 302.000000 289.000000"
 preserveAspectRatio="xMidYMid meet">

<g transform="translate(0.000000,289.000000) scale(0.100000,-0.100000)"
fill="#000000" stroke="none">
<path d="M1078 2860 c-77 -19 -111 -49 -260 -230 -64 -77 -119 -116 -225 -160
-280 -114 -315 -155 -335 -383 -16 -201 -30 -252 -99 -359 -163 -253 -165
-321 -23 -545 88 -139 102 -178 114 -331 6 -70 15 -149 20 -175 26 -126 95
-190 282 -261 151 -57 188 -83 300 -214 103 -121 141 -154 204 -178 56 -21
148 -15 289 20 138 35 221 34 381 -5 243 -59 313 -32 489 186 85 106 114 126
274 192 237 98 274 144 292 366 18 205 30 249 111 384 87 144 108 197 108 268
0 71 -22 128 -104 263 -85 141 -94 169 -107 321 -5 69 -14 148 -19 174 -26
126 -95 190 -285 262 -106 39 -185 86 -219 128 -145 180 -193 229 -261 265
-48 25 -152 20 -290 -16 -154 -41 -223 -41 -375 -3 -136 35 -211 43 -262 31z
m249 -45 c78 -19 167 -35 197 -35 30 0 119 16 197 35 79 19 163 35 188 35 52
0 111 -24 159 -65 37 -31 182 -199 182 -212 1 -11 77 -67 125 -90 22 -11 78
-35 125 -53 214 -84 252 -138 270 -383 14 -189 20 -209 105 -346 142 -230 143
-298 7 -518 -85 -137 -99 -183 -112 -350 -6 -76 -15 -156 -21 -178 -25 -97
-92 -154 -259 -219 -156 -62 -183 -80 -277 -190 -196 -232 -245 -249 -510
-185 -151 37 -225 36 -388 -5 -203 -51 -285 -32 -397 95 -179 204 -199 219
-378 289 -213 84 -252 138 -270 383 -14 191 -23 218 -123 374 -53 82 -76 125
-80 152 -2 11 -6 24 -10 27 -4 4 -7 32 -7 63 0 60 33 142 89 224 100 146 118
197 131 374 6 76 15 156 21 178 25 97 92 154 259 219 175 70 210 96 330 246
103 129 163 169 260 170 25 0 109 -16 187 -35z"/>
<path d="M600 1685 c0 -40 2 -45 23 -45 37 0 47 -19 47 -92 0 -66 -1 -68 -25
-68 -23 0 -25 -4 -25 -45 0 -42 2 -45 25 -45 l26 0 -3 -87 -3 -88 -32 -15
c-28 -13 -33 -20 -33 -52 l0 -38 229 0 230 0 3 28 c2 15 1 53 0 85 l-4 57 -49
0 -49 0 0 -45 0 -45 -99 0 -100 0 15 35 c7 19 14 64 14 100 l0 65 86 0 85 0
-3 42 -3 41 -82 -2 -83 -2 0 85 0 86 80 0 80 0 0 -40 0 -40 50 0 51 0 -3 83
-3 82 -222 3 -223 2 0 -45z"/>
<path d="M1287 1723 c-4 -3 -7 -23 -7 -44 0 -34 3 -38 28 -41 37 -4 35 -15
-48 -231 -72 -185 -92 -217 -136 -217 -21 0 -24 -4 -24 -40 l0 -40 125 0 125
0 0 40 c0 39 -1 40 -35 40 -19 0 -35 2 -35 4 0 2 7 20 15 40 l15 36 105 0
c102 0 106 -1 117 -24 14 -31 4 -56 -22 -56 -17 0 -20 -6 -20 -40 l0 -40 125
0 125 0 0 39 c0 37 -2 40 -32 43 -33 3 -33 3 -120 223 -49 121 -88 221 -88
223 0 1 14 2 30 2 29 0 30 2 30 45 l0 45 -133 0 c-74 0 -137 -3 -140 -7z m167
-261 c20 -54 36 -102 36 -105 0 -4 -34 -7 -75 -7 -41 0 -75 3 -75 7 0 9 72
203 75 203 2 0 19 -44 39 -98z"/>
<path d="M1800 1685 c0 -41 2 -45 24 -45 13 0 28 -6 34 -13 7 -8 10 -83 9
-212 l-2 -200 -32 -15 c-28 -13 -33 -20 -33 -52 l0 -38 125 0 125 0 0 40 0 40
-51 0 c-47 0 -50 2 -38 17 10 11 15 60 19 169 l5 153 68 -124 c94 -170 97
-170 182 8 l64 132 0 -160 c0 -88 -3 -165 -7 -171 -4 -6 -17 -14 -29 -18 -19
-6 -23 -15 -23 -47 l0 -39 125 0 125 0 0 40 0 40 -51 0 c-47 0 -50 2 -38 17
11 12 15 66 17 225 l3 208 35 0 c34 0 34 0 34 45 l0 45 -90 0 -90 0 -76 -157
c-57 -121 -77 -154 -85 -143 -5 8 -46 79 -90 158 l-81 142 -89 0 -89 0 0 -45z"/>
</g>
</svg>
